# Alias OBJ Model File
# Exported from SketchUp, (c) 2000-2012 Trimble Navigation Limited
# File units = millimeters

mtllib scene9_BRIR.mtl

g Mesh1 Model

usemtl mat_scene09_ceiling
v -1616.49 3000 2524.62
vt 63.6414 -99.3946
vn 0 -1 -0
v -2866.49 3000 2524.62
vt 112.854 -99.3946
v -2866.49 3000 -3815.38
vt 112.854 150.212
f 1/1/1 2/2/1 3/3/1

usemtl mat_scene09_concrete
vt 63.6414 118.11
vn 0 0 -1
v -2866.49 2500 2524.62
vt 112.854 98.4252
vt 112.854 118.11
f 1/4/2 4/5/2 2/6/2

v -1870.42 2200 2524.62
vt 73.6385 86.6142
f 1/4/2 5/7/2 4/5/2

v -1616.49 0 2524.62
vt 63.6414 0
f 6/8/2 5/7/2 1/4/2

v -1870.42 0 2524.62
vt 73.6385 0
f 5/7/2 6/8/2 7/9/2

usemtl mat_scene09_floor
v 2893.51 0 -4245.38
vt 113.918 167.141
vn 0 1 -0
vt -73.6385 -99.3946
vt -63.6414 -99.3946
f 8/10/3 7/11/3 6/12/3

v -2840.42 0 2524.62
vt -111.827 -99.3946
f 8/10/3 9/13/3 7/11/3

v -2866.49 0 -4245.38
vt -112.854 167.141
f 10/14/3 9/13/3 8/10/3

v -2866.49 0 -3815.38
vt -112.854 150.212
f 11/15/3 9/13/3 10/14/3

v -3036.49 0 -3815.38
vt -119.547 150.212
f 12/16/3 9/13/3 11/15/3

v -3036.49 0 2524.62
vt -119.547 -99.3946
f 9/13/3 12/16/3 13/17/3

usemtl mat_scene09_plaster
vt 150.212 0
vn 1 0 5.69331e-17
v -3036.49 2500 2524.62
vt -99.3946 98.4252
vt -99.3946 0
f 12/18/4 14/19/4 13/20/4

v -3036.49 2500 -3815.38
vt 150.212 98.4252
f 14/19/4 12/18/4 15/21/4

usemtl mat_scene09_concrete
vt -119.547 0
vn 0 0 1
v -2866.49 2500 -3815.38
vt -112.854 98.4252
vt -119.547 98.4252
f 12/22/5 16/23/5 15/24/5

vt -112.854 0
f 16/23/5 12/22/5 11/25/5

vt 167.141 0
vn 1 0 -0
f 10/26/6 16/21/6 11/18/6

vt 150.212 118.11
f 16/21/6 10/26/6 3/27/6

v -2866.49 3000 -4245.38
vt 167.141 118.11
f 3/27/6 10/26/6 17/28/6

usemtl mat_scene09_windows
v 2893.51 3000 -4245.38
vt 113.918 118.11
vt -112.854 118.11
f 10/25/5 18/29/5 17/30/5

vt 113.918 0
f 18/29/5 10/25/5 8/31/5

usemtl mat_scene09_concrete
v 2893.51 0 -3815.38
vt -150.212 0
vn -1 0 -0
vt -167.141 118.11
vt -167.141 0
f 19/32/7 18/33/7 8/34/7

v 2893.51 3000 -3815.38
vt -150.212 118.11
f 18/33/7 19/32/7 20/35/7

v 3093.51 3000 -3815.38
vt 121.792 118.11
f 19/31/5 21/36/5 20/29/5

v 3093.51 0 -3815.38
vt 121.792 0
f 21/36/5 19/31/5 22/37/5

usemtl mat_scene09_floor
vt 113.918 150.212
v 3093.51 0 1694.62
vt 121.792 -66.7174
vt 121.792 150.212
f 19/38/3 23/39/3 22/40/3

v 2493.51 0 1694.62
vt 98.1696 -66.7174
f 23/39/3 19/38/3 24/41/3

f 8/10/3 24/41/3 19/38/3

f 8/10/3 6/12/3 24/41/3

v 2493.51 0 3694.62
vt 98.1696 -145.458
f 24/41/3 6/12/3 25/42/3

v 3093.51 0 4254.62
vt 121.792 -167.505
f 6/12/3 26/43/3 25/42/3

v -1616.49 0 4254.62
vt -63.6414 -167.505
f 26/43/3 6/12/3 27/44/3

usemtl mat_scene09_concrete
v -1616.49 3000 4254.62
vt -167.505 118.11
vt -167.505 0
f 6/20/6 28/45/6 27/46/6

vt -99.3946 118.11
f 28/45/6 6/20/6 1/47/6

usemtl mat_scene09_ceiling
vt -113.918 167.141
vt 63.6414 -167.505
f 1/1/1 18/48/1 28/49/1

f 3/3/1 18/48/1 1/1/1

vt 112.854 167.141
f 18/48/1 3/3/1 17/50/1

v 2493.51 3000 1694.62
vt -98.1696 -66.7174
f 28/49/1 18/48/1 29/51/1

vt -113.918 150.212
f 29/51/1 18/48/1 20/52/1

v 3093.51 3000 1694.62
vt -121.792 -66.7174
f 29/51/1 20/52/1 30/53/1

vt -121.792 150.212
f 30/53/1 20/52/1 21/54/1

usemtl mat_scene09_concrete
vt 66.7174 0
vt 66.7174 118.11
f 21/35/7 23/55/7 30/56/7

f 23/55/7 21/35/7 22/32/7

vt -121.792 0
vt -98.1696 118.11
vt -121.792 118.11
f 23/57/2 29/58/2 30/59/2

vt -98.1696 0
f 29/58/2 23/57/2 24/60/2

vt 145.458 0
f 25/61/7 29/56/7 24/55/7

v 2493.51 3000 3694.62
vt 145.458 118.11
f 29/56/7 25/61/7 31/62/7

vt 98.1696 0
v 3093.51 3000 3694.62
vt 98.1696 118.11
f 25/63/5 32/36/5 31/64/5

v 3093.51 0 3694.62
f 32/36/5 25/63/5 33/37/5

usemtl mat_scene09_floor
vt 121.792 -145.458
f 25/42/3 26/43/3 33/65/3

usemtl mat_scene09_concrete
vt 167.505 0
f 26/66/7 32/62/7 33/61/7

v 3093.51 3000 4254.62
vt 167.505 118.11
f 32/62/7 26/66/7 34/67/7

usemtl mat_scene09_plaster
f 26/57/2 28/4/2 34/59/2

f 28/4/2 26/57/2 27/8/2

usemtl mat_scene09_ceiling
vt -98.1696 -145.458
vt -121.792 -167.505
f 28/49/1 31/68/1 34/69/1

f 31/68/1 28/49/1 29/51/1

vt -121.792 -145.458
f 34/69/1 31/68/1 32/70/1

usemtl mat_scene09_concrete
vn 1 -3.34066e-32 5.69331e-17
f 2/47/8 16/21/8 3/27/8

f 16/21/8 2/47/8 4/19/8

vt 119.547 150.212
f 4/2/1 15/71/1 16/3/1

vt 119.547 -99.3946
f 15/71/1 4/2/1 14/72/1

vt 119.547 98.4252
f 4/5/2 5/7/2 14/73/2

v -2840.42 2200 2524.62
vt 111.827 86.6142
f 35/74/2 14/73/2 5/7/2

vt 111.827 0
f 9/75/2 14/73/2 35/74/2

vt 119.547 0
f 14/73/2 9/75/2 13/76/2

f 35/74/2 7/9/2 9/75/2

f 7/9/2 35/74/2 5/7/2

