# Alias OBJ Model File
# Exported from SketchUp, (c) 2000-2012 Trimble Navigation Limited
# File units = millimeters

mtllib scene5.mtl

g Mesh1 Group1 Model

usemtl mat_Tiles
v 11000 0 -0
vt 433.071 0
vn 0 1 -0
v 0 0 -5970
vt 0 235.039
v 0 0 -0
vt 0 0
f 1/1/1 2/2/1 3/3/1

v 11000 0 -5970
vt 433.071 235.039
f 2/2/1 1/1/1 4/4/1

g Mesh2 MDF_Platte_25mm_2x1_1 Model

usemtl _mat_MDF25mmB_plane
v 5512.15 2070 -1610.21
vt 0.0984252 8.14961
vn 0 0 1
v 5487.15 6.22434e-14 -1610.21
v 5512.15 6.22434e-14 -1610.21
vt 0.0984252 0
f 5/5/2 6/3/2 7/6/2

v 5487.15 2070 -1610.21
vt 0 8.14961
f 6/3/2 5/5/2 8/7/2

v 5487.15 2070 -2610.21
vt 0 3.93701
f 5/6/1 9/8/1 8/3/1

v 5512.15 2070 -2610.21
vt 0.0984252 3.93701
f 9/8/1 5/6/1 10/9/1

vn 1 0 -0
v 5512.15 6.22434e-14 -2610.21
vt 3.93701 0
vt 3.93701 8.14961
f 5/7/3 11/10/3 10/11/3

f 11/10/3 5/7/3 7/3/3

vn 0 -1 -0
vt -0.0984252 3.93701
vt -0.0984252 0
f 6/3/4 11/12/4 7/13/4

v 5487.15 6.22434e-14 -2610.21
f 11/12/4 6/3/4 12/8/4

vn -1 0 -0
vt -3.93701 8.14961
vt -3.93701 0
f 6/3/5 9/14/5 12/15/5

f 9/14/5 6/3/5 8/7/5

vn 0 0 -1
f 9/7/6 11/13/6 12/3/6

vt -0.0984252 8.14961
f 11/13/6 9/7/6 10/16/6

g Mesh3 MDF_Platte_25mm_2x1_2 Model

v 5512.15 2070 -3360.21
v 5487.15 6.22434e-14 -3360.21
v 5512.15 6.22434e-14 -3360.21
f 13/5/2 14/3/2 15/6/2

v 5487.15 2070 -3360.21
f 14/3/2 13/5/2 16/7/2

v 5487.15 2070 -4360.21
f 13/6/1 17/8/1 16/3/1

v 5512.15 2070 -4360.21
f 17/8/1 13/6/1 18/9/1

v 5512.15 6.22434e-14 -4360.21
f 13/7/3 19/10/3 18/11/3

f 19/10/3 13/7/3 15/3/3

f 14/3/4 19/12/4 15/13/4

v 5487.15 6.22434e-14 -4360.21
f 19/12/4 14/3/4 20/8/4

f 14/3/5 17/14/5 20/15/5

f 17/14/5 14/3/5 16/7/5

f 17/7/6 19/13/6 20/3/6

f 19/13/6 17/7/6 18/16/6

g Mesh4 MDF_Platte_25mm_2x1_3_1 Model

v 5512.15 2070 -2610.21
v 5487.15 6.22434e-14 -2610.21
v 5512.15 6.22434e-14 -2610.21
f 21/5/2 22/3/2 23/6/2

v 5487.15 2070 -2610.21
f 22/3/2 21/5/2 24/7/2

vt 0 2.95276
f 21/6/1 16/17/1 24/3/1

vt 0.0984252 2.95276
f 16/17/1 21/6/1 13/18/1

vt 2.95276 0
vt 2.95276 8.14961
f 21/7/3 15/19/3 13/20/3

f 15/19/3 21/7/3 23/3/3

vt -0.0984252 2.95276
f 22/3/4 15/21/4 23/13/4

f 15/21/4 22/3/4 14/17/4

vt -2.95276 8.14961
vt -2.95276 0
f 22/3/5 16/22/5 14/23/5

f 16/22/5 22/3/5 24/7/5

f 16/7/6 15/13/6 14/3/6

f 15/13/6 16/7/6 13/16/6

g Mesh5 Model

v 5512.15 0 -1610.21
v 5512.15 2070 8389.79
vt -35.4331 8.14961
v 5512.15 0 8389.79
vt -35.4331 0
f 25/10/3 26/24/3 27/25/3

f 26/24/3 25/10/3 5/11/3

f 25/13/6 8/7/6 5/16/6

v 5487.15 0 -1610.21
f 8/7/6 25/13/6 28/3/6

v 5487.15 0 8389.79
vt 0 -35.4331
f 25/12/4 29/26/4 28/8/4

vt -0.0984252 -35.4331
f 29/26/4 25/12/4 27/27/4

f 26/5/2 29/3/2 27/6/2

v 5487.15 2070 8389.79
f 29/3/2 26/5/2 30/7/2

vt 0.0984252 -35.4331
f 26/28/1 8/8/1 30/26/1

f 8/8/1 26/28/1 5/9/1

vt 35.4331 0
vt 35.4331 8.14961
f 8/14/5 29/29/5 30/30/5

f 29/29/5 8/14/5 28/15/5

g Mesh6 Model

f 18/5/2 20/3/2 19/6/2

f 20/3/2 18/5/2 17/7/2

v 5487.15 2070 -14360.2
vt 0 39.3701
f 18/6/1 31/31/1 17/3/1

v 5512.15 2070 -14360.2
vt 0.0984252 39.3701
f 31/31/1 18/6/1 32/32/1

v 5512.15 6.22434e-14 -14360.2
vt 39.3701 0
vt 39.3701 8.14961
f 18/7/3 33/33/3 32/34/3

f 33/33/3 18/7/3 19/3/3

vt -0.0984252 39.3701
f 20/3/4 33/35/4 19/13/4

v 5487.15 6.22434e-14 -14360.2
f 33/35/4 20/3/4 34/31/4

vt -39.3701 8.14961
vt -39.3701 0
f 20/3/5 31/36/5 34/37/5

f 31/36/5 20/3/5 17/7/5

f 31/7/6 33/13/6 34/3/6

f 33/13/6 31/7/6 32/16/6

